<?xml version="1.0" encoding="utf-8"?>
<!-- Generator: Adobe Illustrator 26.5.0, SVG Export Plug-In . SVG Version: 6.00 Build 0)  -->
<svg version="1.1" id="Layer_1" xmlns="http://www.w3.org/2000/svg" xmlns:xlink="http://www.w3.org/1999/xlink" x="0px" y="0px"
	 viewBox="0 0 300 300" style="enable-background:new 0 0 300 300;" xml:space="preserve">
<style type="text/css">
	.st0{fill:#FFFFFF;stroke:#F15A22;stroke-width:5;stroke-miterlimit:10;}
	.st1{fill:#0C1B55;stroke:#F15A22;stroke-width:2;stroke-miterlimit:10;}
	.st2{fill:#F15A22;stroke:#0C1B55;stroke-width:3;stroke-miterlimit:10;}
	.st3{fill:#0C1B55;stroke:#F15A22;stroke-width:3;stroke-miterlimit:10;}
	.st4{fill:#F15A22;stroke:#F15A22;stroke-width:7;stroke-miterlimit:10;}
	.st5{fill:#F15A22;stroke:#0C1B55;stroke-width:4;stroke-miterlimit:10;}
	.st6{fill:#0C1B55;stroke:#F15A22;stroke-width:0.75;stroke-miterlimit:10;}
	.st7{fill:#F15A22;stroke:#0C1B55;stroke-width:2;stroke-miterlimit:10;}
	.st8{fill:#0C1B55;}
</style>
<circle class="st0" cx="150" cy="150" r="139.86"/>
<path class="st1" d="M411.46,230.73h-30.65c-1.22-4.6-5.4-8-10.38-8c-5.94,0-10.75,4.81-10.75,10.75s4.81,10.75,10.75,10.75
	c4.98,0,9.16-3.4,10.38-8h30.65c1.52,0,2.75-1.23,2.75-2.75C414.21,231.97,412.98,230.73,411.46,230.73z"/>
<path class="st1" d="M393.46,164.51c-4.98,0-9.16,3.4-10.38,8h-30.65c-1.52,0-2.75,1.23-2.75,2.75s1.23,2.75,2.75,2.75h30.65
	c1.22,4.6,5.4,8,10.38,8c5.94,0,10.75-4.81,10.75-10.75S399.4,164.51,393.46,164.51z"/>
<path class="st2" d="M417.66,190.51c-6.64,0-12.22,4.46-13.94,10.55h-40.64c-1.87-10.54-11.07-18.55-22.15-18.55
	c-12.43,0-22.5,10.07-22.5,22.5s10.07,22.5,22.5,22.5c11.08,0,20.28-8.01,22.15-18.55h40.64c1.72,6.08,7.3,10.55,13.94,10.55
	c8.01,0,14.5-6.49,14.5-14.5S425.67,190.51,417.66,190.51z M340.93,216.97c-6.6,0-11.95-5.35-11.95-11.95s5.35-11.95,11.95-11.95
	c6.6,0,11.95,5.35,11.95,11.95S347.53,216.97,340.93,216.97z M417.66,212.76c-4.28,0-7.75-3.47-7.75-7.75s3.47-7.75,7.75-7.75
	s7.75,3.47,7.75,7.75S421.94,212.76,417.66,212.76z"/>
<g>
	<path class="st3" d="M256.19,168.14l-11.48-25.92c-0.31-0.71-0.86-3.07-0.83-3.84c0.04-0.99-0.01-2.11-0.01-3.09
		c0-34.2-26.41-62.21-59.95-64.79C205.43,78.62,220,94.22,220,112.14c0,26.29-31.34,47.6-70,47.6c-12.09,0-23.47-2.09-33.4-5.76
		c3.76,12.52,11.2,23.46,21.06,31.55c0.64,0.53,1.03,1.31,1.03,2.14v34.75c0,3.91,3.17,7.08,7.08,7.08h53.84
		c3.91,0,7.08-3.17,7.08-7.08v-11.09c0-0.73,0.59-1.32,1.32-1.32h23.09c2.25,0,4.07-1.82,4.07-4.07l4.45-30.5
		c0.12-0.84,0.84-1.46,1.69-1.46h10.17c0.17,0,1.34-0.01,1.5-0.03C255.68,173.63,257.21,170.66,256.19,168.14z"/>
	<path class="st2" d="M150,159.74c-38.66,0-70-21.31-70-47.6c0-17.92,14.57-33.52,36.09-41.64c-33.54,2.58-59.95,30.59-59.95,64.79
		c0,0.99-0.05,2.1-0.01,3.09c0.03,0.78-0.52,3.13-0.83,3.84l-11.48,25.92c-1.02,2.52,0.52,5.49,3.21,5.8
		c0.17,0.02,1.33,0.03,1.5,0.03h10.17c0.85,0,1.57,0.62,1.69,1.46l4.45,30.5c0,2.25,1.82,4.07,4.07,4.07h23.09
		c0.73,0,1.32,0.59,1.32,1.32v11.09c0,3.91,3.17,7.08,7.08,7.08h53.84c3.91,0,7.08-3.17,7.08-7.08v-34.75
		c0-0.83,0.38-1.61,1.03-2.14c9.86-8.09,17.3-19.03,21.06-31.55C173.47,157.65,162.09,159.74,150,159.74z"/>
</g>
<g>
	<line class="st4" x1="121.9" y1="98.53" x2="135.92" y2="82.92"/>
	<line class="st5" x1="121.9" y1="98.53" x2="135.92" y2="82.92"/>
	<line class="st4" x1="156.53" y1="93.07" x2="143.09" y2="82.05"/>
	<line class="st5" x1="156.53" y1="93.07" x2="143.09" y2="82.05"/>
	<line class="st4" x1="164.77" y1="93.49" x2="177.69" y2="84.49"/>
	<line class="st5" x1="164.92" y1="93.38" x2="177.69" y2="84.49"/>
	<path class="st6" d="M118.23,95.75c-3.79,0-6.87,3.08-6.87,6.87c0,3.79,3.08,6.87,6.87,6.87c3.79,0,6.87-3.08,6.87-6.87
		C125.1,98.83,122.02,95.75,118.23,95.75z M118.23,106.56c-2.18,0-3.94-1.77-3.94-3.94c0-2.18,1.76-3.94,3.94-3.94
		s3.94,1.76,3.94,3.94C122.17,104.8,120.41,106.56,118.23,106.56z"/>
	<path class="st6" d="M139.41,72.16c-3.79,0-6.87,3.08-6.87,6.87c0,3.79,3.08,6.87,6.87,6.87c3.79,0,6.87-3.08,6.87-6.87
		C146.28,75.24,143.2,72.16,139.41,72.16z M139.41,82.97c-2.18,0-3.94-1.77-3.94-3.94s1.76-3.94,3.94-3.94s3.94,1.76,3.94,3.94
		S141.59,82.97,139.41,82.97z"/>
	<path class="st6" d="M160.59,89.53c-3.79,0-6.87,3.08-6.87,6.87c0,3.79,3.08,6.87,6.87,6.87c3.79,0,6.87-3.08,6.87-6.87
		C167.46,92.61,164.38,89.53,160.59,89.53z M160.59,100.35c-2.18,0-3.94-1.77-3.94-3.94c0-2.18,1.76-3.94,3.94-3.94
		s3.94,1.76,3.94,3.94C164.53,98.58,162.77,100.35,160.59,100.35z"/>
	<path class="st6" d="M181.77,74.78c-3.79,0-6.87,3.08-6.87,6.87c0,3.79,3.08,6.87,6.87,6.87c3.79,0,6.87-3.08,6.87-6.87
		C188.64,77.85,185.56,74.78,181.77,74.78z M181.77,85.59c-2.18,0-3.94-1.77-3.94-3.94c0-2.18,1.76-3.94,3.94-3.94
		s3.94,1.76,3.94,3.94C185.71,83.82,183.95,85.59,181.77,85.59z"/>
	<g>
		<rect x="175.42" y="100.04" class="st7" width="12.71" height="41.15"/>
		<rect x="154.24" y="112.41" class="st7" width="12.71" height="28.78"/>
		<rect x="133.06" y="97.34" class="st7" width="12.71" height="43.85"/>
		<rect x="111.88" y="120.05" class="st7" width="12.71" height="21.14"/>
	</g>
	<rect x="107.5" y="139.19" class="st8" width="85" height="4.05"/>
</g>
</svg>
