<?xml version="1.0" encoding="utf-8"?>
<!-- Generator: Adobe Illustrator 26.5.0, SVG Export Plug-In . SVG Version: 6.00 Build 0)  -->
<svg version="1.1" id="Layer_1" xmlns="http://www.w3.org/2000/svg" xmlns:xlink="http://www.w3.org/1999/xlink" x="0px" y="0px"
	 viewBox="0 0 300 300" style="enable-background:new 0 0 300 300;" xml:space="preserve">
<style type="text/css">
	.st0{fill:#0C1B55;stroke:#F15A22;stroke-width:3;stroke-miterlimit:10;}
	.st1{fill:#0C1B55;stroke:#F15A22;stroke-width:2;stroke-miterlimit:10;}
	.st2{fill:#F15A22;stroke:#0C1B55;stroke-width:3;stroke-miterlimit:10;}
	.st3{fill:#F15A22;stroke:#0C1B55;stroke-width:2.5;stroke-miterlimit:10;}
	.st4{font-family:'Montserrat-SemiBold';}
	.st5{font-size:50px;}
	.st6{letter-spacing:1;}
	.st7{fill:#0C1B55;stroke:#F15A22;stroke-width:0.3;stroke-miterlimit:10;}
	.st8{font-family:'Montserrat-Bold';}
	.st9{font-size:12px;}
</style>
<g>
	<path class="st0" d="M258.78,133.05l-11.48-25.92c-0.31-0.71-0.86-3.07-0.83-3.84c0.04-0.99-0.01-2.11-0.01-3.09
		c0-34.2-26.41-62.21-59.95-64.79c21.52,8.12,36.09,23.72,36.09,41.64c0,26.29-31.34,47.6-70,47.6c-12.09,0-23.47-2.09-33.4-5.76
		c3.76,12.52,11.2,23.46,21.06,31.55c0.64,0.53,1.03,1.31,1.03,2.14v34.75c0,3.91,3.17,7.08,7.08,7.08h53.84
		c3.91,0,7.08-3.17,7.08-7.08v-11.09c0-0.73,0.59-1.32,1.32-1.32h23.09c2.25,0,4.07-1.82,4.07-4.07l4.45-30.5
		c0.12-0.84,0.84-1.46,1.69-1.46h10.17c0.17,0,1.34-0.01,1.5-0.03C258.26,138.54,259.8,135.57,258.78,133.05z"/>
	<path class="st1" d="M188.75,103.41H158.1c-1.22-4.6-5.4-8-10.38-8c-5.94,0-10.75,4.81-10.75,10.75s4.81,10.75,10.75,10.75
		c4.98,0,9.16-3.4,10.38-8h30.65c1.52,0,2.75-1.23,2.75-2.75C191.5,104.64,190.27,103.41,188.75,103.41z"/>
	<path class="st1" d="M170.75,37.19c-4.98,0-9.16,3.4-10.38,8h-30.65c-1.52,0-2.75,1.23-2.75,2.75s1.23,2.75,2.75,2.75h30.65
		c1.22,4.6,5.4,8,10.38,8c5.94,0,10.75-4.81,10.75-10.75S176.69,37.19,170.75,37.19z"/>
	<path class="st2" d="M194.95,63.18c-6.64,0-12.22,4.46-13.94,10.55h-40.64c-1.87-10.54-11.07-18.55-22.15-18.55
		c-12.43,0-22.5,10.07-22.5,22.5s10.07,22.5,22.5,22.5c11.08,0,20.28-8.01,22.15-18.55h40.64c1.72,6.08,7.3,10.55,13.94,10.55
		c8.01,0,14.5-6.49,14.5-14.5S202.96,63.18,194.95,63.18z M118.22,89.64c-6.6,0-11.95-5.35-11.95-11.95s5.35-11.95,11.95-11.95
		c6.6,0,11.95,5.35,11.95,11.95S124.82,89.64,118.22,89.64z M194.95,85.43c-4.28,0-7.75-3.47-7.75-7.75s3.47-7.75,7.75-7.75
		s7.75,3.47,7.75,7.75S199.23,85.43,194.95,85.43z"/>
	<path class="st2" d="M152.59,124.65c-38.66,0-70-21.31-70-47.6c0-17.92,14.57-33.52,36.09-41.64
		c-33.54,2.58-59.95,30.59-59.95,64.79c0,0.99-0.05,2.1-0.01,3.09c0.03,0.78-0.52,3.13-0.83,3.84L46.4,133.05
		c-1.02,2.52,0.52,5.49,3.21,5.8c0.17,0.02,1.33,0.03,1.5,0.03h10.17c0.85,0,1.57,0.62,1.69,1.46l4.45,30.5
		c0,2.25,1.82,4.07,4.07,4.07h23.09c0.73,0,1.32,0.59,1.32,1.32v11.09c0,3.91,3.17,7.08,7.08,7.08h53.84c3.91,0,7.08-3.17,7.08-7.08
		v-34.75c0-0.83,0.38-1.61,1.03-2.14c9.86-8.09,17.3-19.03,21.06-31.55C176.06,122.56,164.68,124.65,152.59,124.65z"/>
</g>
<text transform="matrix(1 0 0 1 19.9635 257.1389)" class="st3 st4 st5 st6">HEDS Lab</text>
<text transform="matrix(1 0 0 1 16.568 274.1357)" class="st7 st8 st9">Human-centered Educational Data Science</text>
</svg>
