<?xml version="1.0" encoding="utf-8"?>
<!-- Generator: Adobe Illustrator 26.5.0, SVG Export Plug-In . SVG Version: 6.00 Build 0)  -->
<svg version="1.1" id="Layer_1" xmlns="http://www.w3.org/2000/svg" xmlns:xlink="http://www.w3.org/1999/xlink" x="0px" y="0px"
	 viewBox="0 0 300 300" style="enable-background:new 0 0 300 300;" xml:space="preserve">
<style type="text/css">
	.st0{fill:#FFFFFF;stroke:#F15A22;stroke-width:5;stroke-miterlimit:10;}
	.st1{fill:#F15A22;stroke:#F15A22;stroke-width:7;stroke-miterlimit:10;}
	.st2{fill:#F15A22;stroke:#0C1B55;stroke-width:4;stroke-miterlimit:10;}
	.st3{fill:#0C1B55;stroke:#F15A22;stroke-width:0.75;stroke-miterlimit:10;}
	.st4{fill:#F15A22;stroke:#0C1B55;stroke-width:2;stroke-miterlimit:10;}
	.st5{fill:#0C1B55;}
	.st6{fill:#0C1B55;stroke:#F15A22;stroke-width:3;stroke-miterlimit:10;}
	.st7{fill:#F15A22;stroke:#0C1B55;stroke-width:3;stroke-miterlimit:10;}
</style>
<circle class="st0" cx="150" cy="150" r="139.86"/>
<g>
	<line class="st1" x1="121.9" y1="98.53" x2="135.92" y2="82.92"/>
	<line class="st2" x1="121.9" y1="98.53" x2="135.92" y2="82.92"/>
	<line class="st1" x1="156.53" y1="93.07" x2="143.09" y2="82.05"/>
	<line class="st2" x1="156.53" y1="93.07" x2="143.09" y2="82.05"/>
	<line class="st1" x1="164.77" y1="93.49" x2="177.69" y2="84.49"/>
	<line class="st2" x1="164.92" y1="93.38" x2="177.69" y2="84.49"/>
	<path class="st3" d="M118.23,95.75c-3.79,0-6.87,3.08-6.87,6.87c0,3.79,3.08,6.87,6.87,6.87c3.79,0,6.87-3.08,6.87-6.87
		C125.1,98.83,122.02,95.75,118.23,95.75z M118.23,106.56c-2.18,0-3.94-1.77-3.94-3.94c0-2.18,1.76-3.94,3.94-3.94
		s3.94,1.76,3.94,3.94C122.17,104.8,120.41,106.56,118.23,106.56z"/>
	<path class="st3" d="M139.41,72.16c-3.79,0-6.87,3.08-6.87,6.87c0,3.79,3.08,6.87,6.87,6.87c3.79,0,6.87-3.08,6.87-6.87
		C146.28,75.24,143.2,72.16,139.41,72.16z M139.41,82.97c-2.18,0-3.94-1.77-3.94-3.94s1.76-3.94,3.94-3.94s3.94,1.76,3.94,3.94
		S141.59,82.97,139.41,82.97z"/>
	<path class="st3" d="M160.59,89.53c-3.79,0-6.87,3.08-6.87,6.87c0,3.79,3.08,6.87,6.87,6.87c3.79,0,6.87-3.08,6.87-6.87
		C167.46,92.61,164.38,89.53,160.59,89.53z M160.59,100.35c-2.18,0-3.94-1.77-3.94-3.94c0-2.18,1.76-3.94,3.94-3.94
		s3.94,1.76,3.94,3.94C164.53,98.58,162.77,100.35,160.59,100.35z"/>
	<path class="st3" d="M181.77,74.78c-3.79,0-6.87,3.08-6.87,6.87c0,3.79,3.08,6.87,6.87,6.87c3.79,0,6.87-3.08,6.87-6.87
		C188.64,77.85,185.56,74.78,181.77,74.78z M181.77,85.59c-2.18,0-3.94-1.77-3.94-3.94c0-2.18,1.76-3.94,3.94-3.94
		s3.94,1.76,3.94,3.94C185.71,83.82,183.95,85.59,181.77,85.59z"/>
	<g>
		<rect x="175.42" y="100.04" class="st4" width="12.71" height="41.15"/>
		<rect x="154.24" y="112.41" class="st4" width="12.71" height="28.78"/>
		<rect x="133.06" y="97.34" class="st4" width="12.71" height="43.85"/>
		<rect x="111.88" y="120.05" class="st4" width="12.71" height="21.14"/>
	</g>
	<rect x="107.5" y="139.19" class="st5" width="85" height="4.05"/>
</g>
<g>
	<path class="st6" d="M256.23,161.92c-0.76-4.56-2.56-8.75-4.73-12.76c-1.44-2.65-3.24-5.1-4.82-7.67
		c-0.62-1.01-1.64-1.68-2.25-2.62c-0.96-1.48-1.44-3.19-1.27-5.01c0.16-1.61,0.58-3.16,1.16-4.66c0.29-0.74,1.09-1.12,1.24-2.01
		c0.36-2.14,0.31-4.2-0.6-6.21c-0.16-0.36-0.23-0.77-0.34-1.15c-1.32-4.72-3-9.32-5.04-13.76c-2.41-5.24-5.56-10.06-9.49-14.34
		c-1.08-1.18-2.06-2.44-3.17-3.61c-3.39-3.57-7.47-6.15-11.68-8.59c-2.94-1.7-6-3.15-9.09-4.56c-5.92-2.71-12.07-4.54-18.5-5.53
		c-2.39-0.37-4.78-0.6-7.18-0.66C203.87,76.46,220,92.73,220,111.55c0,26.23-31.34,47.5-70,47.5c-14.39,0-27.76-2.95-38.88-8
		c1,2.11,2.12,4.16,3.37,6.14c1.63,2.59,3.47,5.05,5.56,7.3c3.33,3.58,6.83,6.99,11.14,9.42c0.38,0.21,0.77,0.5,1.18,0.54
		c1.45,0.15,2.03,1.14,2.43,2.34c0.97,2.86,1.37,5.81,1.43,8.81c0.09,4.64,0.16,9.3-0.49,13.89c-0.52,3.7-1.54,7.35-3.31,10.71
		c-0.1,0.19-0.21,0.39-0.28,0.59c-1.33,3.76-3.18,7.29-4.83,10.9c-1.5,3.27-3.13,6.49-4.89,9.64c-0.95,1.71-2.02,3.39-2.57,5.3
		c-0.69,2.42-0.02,3.5,2.43,4c2.11,0.43,4.22,0.14,6.32-0.14c5.86-0.78,11.64-2.04,17.48-2.99c6.09-0.99,12.2-1.8,18.38-2.03
		c5.39-0.21,10.73,0.1,16.01,1.17c2.33,0.47,4.61,1.12,6.81,2.03c0.62,0.26,0.91,0.18,1.31-0.42c1.65-2.46,1.77-5.37,2.55-8.09
		c0.91-3.15,1.79-6.33,3.27-9.27c1.46-2.9,3.23-5.66,5.62-7.88c3.54-3.29,7.77-5.16,12.64-5.3c4.27-0.12,8.54,0.38,12.81,0.21
		c2.46-0.1,4.87-0.4,7.2-1.23c2.34-0.84,4.03-2.35,5.18-4.58c1.68-3.27,2.91-6.69,3.46-10.32c0.26-1.74,0.95-3.31,1.99-4.68
		c1.15-1.52,1.38-3.12,0.84-4.85c-0.33-1.06,0-1.7,0.9-2.29c2.45-1.61,2.96-3.24,1.99-6.02c-0.12-0.34-0.28-0.68-0.34-1.04
		c-0.34-2.15-0.24-3.34,2.03-4.04c2.94-0.91,5.22-2.65,7-5.15C256.17,163.13,256.34,162.59,256.23,161.92z"/>
	<path class="st7" d="M163.76,185.6c-0.61,4.94-0.07,9.31,0.41,13.26c0.03,0.28,0.05,0.42,0.08,0.63c0.52,3.7,1.54,7.35,3.31,10.71
		c0.1,0.19,0.21,0.39,0.28,0.59c1.33,3.76,3.18,7.29,4.83,10.9c1.5,3.27,3.13,6.49,4.89,9.64c0.95,1.71,2.02,3.39,2.57,5.3
		c0.69,2.42,0.02,3.5-2.43,4c-2.11,0.43-4.22,0.14-6.32-0.14c-5.86-0.78-11.64-2.04-17.48-2.99c-6.09-0.99-12.2-1.8-18.38-2.03
		c-5.39-0.21-10.73,0.1-16.01,1.17c-2.33,0.47-4.61,1.12-6.81,2.03c-0.62,0.26-0.91,0.18-1.31-0.42c-1.65-2.46-1.77-5.37-2.55-8.09
		c-0.91-3.15-1.79-6.33-3.27-9.27c-1.46-2.9-3.23-5.66-5.62-7.88c-3.54-3.29-7.77-5.16-12.64-5.3c-4.27-0.12-8.54,0.38-12.81,0.21
		c-2.46-0.1-4.87-0.4-7.2-1.23c-2.34-0.84-4.03-2.35-5.18-4.58c-1.68-3.27-2.91-6.69-3.46-10.32c-0.26-1.74-0.95-3.31-1.99-4.68
		c-1.15-1.52-1.38-3.12-0.84-4.85c0.33-1.06,0-1.7-0.9-2.29c-2.45-1.61-2.96-3.24-1.99-6.02c0.12-0.34,0.28-0.68,0.34-1.04
		c0.34-2.15,0.24-3.34-2.03-4.04c-2.94-0.91-5.22-2.65-7-5.15c-0.42-0.6-0.59-1.14-0.48-1.82c0.76-4.56,2.56-8.75,4.73-12.76
		c1.44-2.65,3.24-5.1,4.82-7.67c0.62-1.01,1.64-1.68,2.25-2.62c0.96-1.48,1.44-3.19,1.27-5.01c-0.16-1.61-0.58-3.16-1.16-4.66
		c-0.29-0.74-1.09-1.12-1.24-2.01c-0.36-2.14-0.31-4.2,0.6-6.21c0.16-0.36,0.23-0.77,0.34-1.15c1.32-4.72,3-9.32,5.04-13.76
		c2.41-5.24,5.56-10.06,9.49-14.34c1.08-1.18,2.06-2.44,3.17-3.61c3.39-3.57,7.47-6.15,11.68-8.59c2.94-1.7,6-3.15,9.09-4.56
		c5.92-2.71,12.07-4.54,18.5-5.53c2.39-0.37,4.78-0.6,7.18-0.66C96.13,76.46,80,92.73,80,111.55c0,26.23,31.34,47.5,70,47.5
		c14.39,0,27.76-2.95,38.88-8c-1,2.11-2.12,4.16-3.37,6.14c-2.56,4.06-5.04,6.74-5.56,7.3c-3.81,4.12-7.25,5.74-11.14,9.42l0,0
		C165.36,177.88,164.48,179.81,163.76,185.6z"/>
</g>
</svg>
