<?xml version="1.0" standalone="no"?>
<!DOCTYPE svg PUBLIC "-//W3C//DTD SVG 20010904//EN"
 "http://www.w3.org/TR/2001/REC-SVG-20010904/DTD/svg10.dtd">
<svg version="1.0" xmlns="http://www.w3.org/2000/svg"
 width="700.000000pt" height="700.000000pt" viewBox="0 0 700.000000 700.000000"
 preserveAspectRatio="xMidYMid meet">
<metadata>
Created by potrace 1.14, written by Peter Selinger 2001-2017
</metadata>
<g transform="translate(0.000000,700.000000) scale(0.100000,-0.100000)"
fill="#000000" stroke="none">
<path d="M2888 5404 c-2 -1 -43 -5 -93 -8 -157 -12 -188 -16 -270 -32 -191
-37 -402 -125 -568 -237 -101 -69 -129 -92 -216 -178 -70 -69 -106 -110 -154
-174 -20 -27 -40 -54 -45 -60 -23 -29 -86 -142 -122 -218 -95 -205 -137 -390
-145 -647 -2 -67 -10 -132 -18 -155 -8 -22 -74 -172 -146 -333 -139 -313 -146
-337 -107 -397 35 -53 56 -59 217 -59 142 0 150 -1 154 -21 3 -11 12 -69 21
-130 8 -60 17 -126 20 -145 3 -19 10 -64 15 -100 6 -36 12 -81 15 -100 2 -19
6 -46 9 -60 2 -14 7 -45 10 -70 14 -111 26 -149 57 -179 37 -36 10 -33 350
-35 141 0 259 -4 262 -7 4 -3 8 -73 9 -155 3 -116 7 -156 20 -179 27 -49 53
-74 99 -95 42 -19 72 -20 1238 -20 1173 0 1196 1 1239 20 93 42 114 89 117
255 2 72 3 141 3 155 l1 25 273 -1 c244 -1 276 1 312 17 46 21 70 56 78 114 4
22 11 73 17 113 5 40 12 94 15 120 3 26 8 54 10 62 3 8 7 35 10 60 3 25 7 56
10 70 2 14 7 45 10 70 4 25 8 56 10 70 2 14 6 45 10 70 12 81 -1 75 164 76
123 0 153 3 175 17 34 23 56 57 63 100 6 36 2 47 -142 372 -155 350 -146 324
-150 443 -5 171 -15 249 -50 387 -145 578 -617 1026 -1200 1139 -82 16 -108
19 -255 31 -47 4 -100 8 -117 10 -18 1 -30 -1 -27 -6 3 -5 10 -9 16 -9 26 0
352 -138 430 -182 169 -95 323 -227 414 -354 55 -76 118 -203 134 -269 6 -27
14 -59 17 -70 2 -11 6 -59 8 -106 10 -267 -127 -526 -387 -728 -63 -49 -241
-161 -256 -161 -4 0 -20 -7 -37 -16 -86 -46 -355 -133 -460 -150 -22 -3 -42
-7 -45 -9 -3 -2 -33 -7 -65 -10 -33 -4 -69 -9 -80 -12 -11 -3 -112 -6 -225 -8
-383 -6 -691 59 -995 210 -242 120 -435 292 -539 477 -249 447 -31 955 532
1237 84 42 352 151 372 151 5 0 10 4 10 8 0 8 -26 12 -32 6z"/>
<path d="M3202 5315 c-72 -22 -113 -80 -115 -164 -2 -50 -6 -64 -32 -93 -17
-18 -81 -89 -143 -158 -110 -124 -113 -126 -156 -127 -56 -2 -98 -23 -131 -68
-70 -91 -23 -226 90 -262 41 -13 76 -8 123 16 56 29 86 81 87 152 l0 57 115
129 c63 70 128 142 144 160 24 27 36 32 70 32 22 -1 46 1 53 2 6 2 70 -43 142
-101 127 -103 130 -106 131 -145 1 -103 104 -181 207 -156 70 18 115 67 126
139 7 44 10 47 140 136 95 65 119 77 138 70 55 -18 131 1 172 44 32 33 52 106
43 153 -10 54 -59 106 -116 123 -104 31 -197 -30 -214 -139 -4 -22 -10 -42
-14 -46 -4 -3 -59 -42 -122 -86 -104 -72 -118 -78 -145 -71 -17 5 -49 7 -72 4
-44 -6 -41 -7 -222 142 -24 21 -52 43 -63 50 -11 8 -18 25 -18 47 0 116 -106
193 -218 160z m108 -101 c56 -55 5 -153 -72 -139 -28 5 -68 49 -68 75 0 74 89
115 140 64z m964 -44 c49 -18 63 -91 26 -135 -30 -36 -106 -24 -130 20 -19 36
-5 92 28 110 32 17 43 18 76 5z m-475 -357 c12 -10 24 -35 27 -55 8 -48 -28
-88 -80 -88 -41 0 -88 48 -82 83 3 12 5 25 5 28 1 3 10 15 21 27 25 27 79 29
109 5z m-1006 -135 c51 -27 64 -92 25 -128 -12 -11 -24 -20 -27 -21 -3 0 -15
-2 -25 -4 -33 -6 -75 23 -84 58 -12 45 -4 66 32 88 36 22 49 23 79 7z"/>
<path d="M3138 4752 l-56 -3 -1 -447 c0 -246 0 -470 0 -499 l-1 -52 -75 0 -75
0 -2 236 -3 236 -163 0 c-89 0 -165 -3 -169 -6 -3 -4 -6 -110 -6 -237 l0 -231
-26 1 c-49 4 -51 2 -51 -45 0 -29 4 -45 13 -46 14 -1 1900 -1 1940 0 25 1 27
4 27 46 0 42 -2 45 -27 46 -16 1 -33 1 -39 0 -8 -1 -11 129 -10 469 l1 470
-172 0 -173 0 0 -470 0 -470 -75 1 -75 1 -1 52 c0 28 0 174 0 324 l0 272 -172
-2 -172 -3 -1 -310 c-1 -170 -2 -316 -3 -322 -1 -9 -22 -13 -70 -13 -46 0 -70
4 -73 13 -2 6 -4 231 -4 500 1 481 1 487 -19 487 -11 1 -63 2 -115 3 -52 1
-121 1 -152 -1z"/>
</g>
</svg>
